<svg width="41" height="40" viewBox="0 0 41 40" fill="none" xmlns="http://www.w3.org/2000/svg">
<mask id="mask0_7_7" style="mask-type:alpha" maskUnits="userSpaceOnUse" x="0" y="0" width="41" height="40">
<rect x="0.666504" width="40" height="40" fill="#D9D9D9"/>
</mask>
<g mask="url(#mask0_7_7)">
<path d="M20.6664 36.6668C18.6386 36.4168 16.6248 35.8682 14.6248 35.021C12.6248 34.1738 10.84 32.9585 9.27059 31.3752C7.70114 29.7918 6.43031 27.7918 5.45809 25.3752C4.48587 22.9585 3.99976 20.0557 3.99976 16.6668V15.0002H5.66642C7.08309 15.0002 8.54142 15.1807 10.0414 15.5418C11.5414 15.9029 12.9442 16.4446 14.2498 17.1668C14.5831 14.7779 15.34 12.3266 16.5206 9.81266C17.7011 7.29877 19.0831 5.13905 20.6664 3.3335C22.2498 5.13905 23.6317 7.29877 24.8123 9.81266C25.9928 12.3266 26.7498 14.7779 27.0831 17.1668C28.3886 16.4446 29.7914 15.9029 31.2914 15.5418C32.7914 15.1807 34.2498 15.0002 35.6664 15.0002H37.3331V16.6668C37.3331 20.0557 36.847 22.9585 35.8748 25.3752C34.9025 27.7918 33.6317 29.7918 32.0623 31.3752C30.4928 32.9585 28.715 34.1738 26.7289 35.021C24.7428 35.8682 22.722 36.4168 20.6664 36.6668ZM20.5831 33.2502C20.2775 28.6391 18.9095 25.1529 16.4789 22.7918C14.0484 20.4307 11.0275 18.9724 7.41642 18.4168C7.72198 23.1668 9.1317 26.7085 11.6456 29.0418C14.1595 31.3752 17.1386 32.7779 20.5831 33.2502ZM20.6664 22.6668C21.0831 22.0557 21.59 21.4238 22.1873 20.771C22.7845 20.1182 23.3609 19.5557 23.9164 19.0835C23.8609 17.5002 23.5484 15.8474 22.9789 14.1252C22.4095 12.4029 21.6386 10.7224 20.6664 9.0835C19.6942 10.7224 18.9234 12.4029 18.3539 14.1252C17.7845 15.8474 17.472 17.5002 17.4164 19.0835C17.972 19.5557 18.5553 20.1182 19.1664 20.771C19.7775 21.4238 20.2775 22.0557 20.6664 22.6668ZM23.9164 32.5002C24.9442 32.1668 26.0136 31.6807 27.1248 31.0418C28.2359 30.4029 29.2706 29.5349 30.2289 28.4377C31.1873 27.3404 32.0067 25.9724 32.6873 24.3335C33.3678 22.6946 33.7775 20.7224 33.9164 18.4168C31.3053 18.8057 29.0136 19.6738 27.0414 21.021C25.0692 22.3682 23.5553 24.0835 22.4998 26.1668C22.8331 27.0557 23.1178 28.0279 23.3539 29.0835C23.59 30.1391 23.7775 31.2779 23.9164 32.5002Z" fill="#FFFFFD"/>
</g>
</svg>
