<svg width="40" height="40" viewBox="0 0 40 40" fill="none" xmlns="http://www.w3.org/2000/svg">
<mask id="mask0_7_19" style="mask-type:alpha" maskUnits="userSpaceOnUse" x="0" y="0" width="40" height="40">
<rect width="40" height="40" fill="#D9D9D9"/>
</mask>
<g mask="url(#mask0_7_19)">
<path d="M19 15.0002H32.3334C31.5834 13.0835 30.4375 11.4377 28.8959 10.0627C27.3542 8.68766 25.5834 7.72238 23.5834 7.16683L19 15.0002ZM15.1667 18.3335L21.8334 6.8335C21.5278 6.77794 21.2223 6.73627 20.9167 6.7085C20.6112 6.68072 20.3056 6.66683 20 6.66683C18.1667 6.66683 16.4584 7.01405 14.875 7.7085C13.2917 8.40294 11.8889 9.3335 10.6667 10.5002L15.1667 18.3335ZM7.08337 23.3335H16.1667L9.50004 11.8335C8.61115 12.9724 7.91671 14.2293 7.41671 15.6043C6.91671 16.9793 6.66671 18.4446 6.66671 20.0002C6.66671 20.5835 6.70143 21.146 6.77087 21.6877C6.84032 22.2293 6.94448 22.7779 7.08337 23.3335ZM16.4167 32.8335L20.9167 25.0002H7.66671C8.41671 26.9168 9.56254 28.5627 11.1042 29.9377C12.6459 31.3127 14.4167 32.2779 16.4167 32.8335ZM20 33.3335C21.8334 33.3335 23.5417 32.9863 25.125 32.2918C26.7084 31.5974 28.1112 30.6668 29.3334 29.5002L24.8334 21.6668L18.1667 33.1668C18.4723 33.2224 18.7709 33.2641 19.0625 33.2918C19.3542 33.3196 19.6667 33.3335 20 33.3335ZM30.5 28.1668C31.3889 27.0279 32.0834 25.771 32.5834 24.396C33.0834 23.021 33.3334 21.5557 33.3334 20.0002C33.3334 19.4168 33.2987 18.8543 33.2292 18.3127C33.1598 17.771 33.0556 17.2224 32.9167 16.6668H23.8334L30.5 28.1668ZM20 36.6668C17.7223 36.6668 15.5695 36.2293 13.5417 35.3543C11.5139 34.4793 9.7431 33.2849 8.22921 31.771C6.71532 30.2571 5.52087 28.4863 4.64587 26.4585C3.77087 24.4307 3.33337 22.2779 3.33337 20.0002C3.33337 17.6946 3.77087 15.5349 4.64587 13.521C5.52087 11.5071 6.71532 9.74322 8.22921 8.22933C9.7431 6.71544 11.5139 5.521 13.5417 4.646C15.5695 3.771 17.7223 3.3335 20 3.3335C22.3056 3.3335 24.4653 3.771 26.4792 4.646C28.4931 5.521 30.257 6.71544 31.7709 8.22933C33.2848 9.74322 34.4792 11.5071 35.3542 13.521C36.2292 15.5349 36.6667 17.6946 36.6667 20.0002C36.6667 22.2779 36.2292 24.4307 35.3542 26.4585C34.4792 28.4863 33.2848 30.2571 31.7709 31.771C30.257 33.2849 28.4931 34.4793 26.4792 35.3543C24.4653 36.2293 22.3056 36.6668 20 36.6668Z" fill="#FFFFFD"/>
</g>
</svg>
