<svg width="70" height="70" viewBox="0 0 70 70" fill="none" xmlns="http://www.w3.org/2000/svg">
<rect width="70" height="70" fill="#FFFFFD"/>
<mask id="mask0_13_29" style="mask-type:alpha" maskUnits="userSpaceOnUse" x="15" y="15" width="40" height="40">
<rect x="15" y="15" width="40" height="40" fill="#D9D9D9"/>
</mask>
<g mask="url(#mask0_13_29)">
<path d="M35 51.6667C32.9723 51.4167 30.9584 50.8681 28.9584 50.0209C26.9584 49.1737 25.1737 47.9584 23.6042 46.375C22.0348 44.7917 20.7639 42.7917 19.7917 40.375C18.8195 37.9584 18.3334 35.0556 18.3334 31.6667V30H20C21.4167 30 22.875 30.1806 24.375 30.5417C25.875 30.9028 27.2778 31.4445 28.5834 32.1667C28.9167 29.7778 29.6737 27.3264 30.8542 24.8125C32.0348 22.2987 33.4167 20.1389 35 18.3334C36.5834 20.1389 37.9653 22.2987 39.1459 24.8125C40.3264 27.3264 41.0834 29.7778 41.4167 32.1667C42.7223 31.4445 44.125 30.9028 45.625 30.5417C47.125 30.1806 48.5834 30 50 30H51.6667V31.6667C51.6667 35.0556 51.1806 37.9584 50.2084 40.375C49.2362 42.7917 47.9653 44.7917 46.3959 46.375C44.8264 47.9584 43.0487 49.1737 41.0625 50.0209C39.0764 50.8681 37.0556 51.4167 35 51.6667ZM34.9167 48.25C34.6112 43.6389 33.2431 40.1528 30.8125 37.7917C28.382 35.4306 25.3612 33.9723 21.75 33.4167C22.0556 38.1667 23.4653 41.7084 25.9792 44.0417C28.4931 46.375 31.4723 47.7778 34.9167 48.25ZM35 37.6667C35.4167 37.0556 35.9237 36.4237 36.5209 35.7709C37.1181 35.1181 37.6945 34.5556 38.25 34.0834C38.1945 32.5 37.882 30.8473 37.3125 29.125C36.7431 27.4028 35.9723 25.7223 35 24.0834C34.0278 25.7223 33.257 27.4028 32.6875 29.125C32.1181 30.8473 31.8056 32.5 31.75 34.0834C32.3056 34.5556 32.8889 35.1181 33.5 35.7709C34.1112 36.4237 34.6112 37.0556 35 37.6667ZM38.25 47.5C39.2778 47.1667 40.3473 46.6806 41.4584 46.0417C42.5695 45.4028 43.6042 44.5348 44.5625 43.4375C45.5209 42.3403 46.3403 40.9723 47.0209 39.3334C47.7014 37.6945 48.1112 35.7223 48.25 33.4167C45.6389 33.8056 43.3473 34.6737 41.375 36.0209C39.4028 37.3681 37.8889 39.0834 36.8334 41.1667C37.1667 42.0556 37.4514 43.0278 37.6875 44.0834C37.9237 45.1389 38.1112 46.2778 38.25 47.5Z" fill="#B2956D"/>
</g>
</svg>
