<svg width="18" height="24" viewBox="0 0 18 24" fill="none" xmlns="http://www.w3.org/2000/svg">
<path d="M10.5231 16.9384C9.14343 16.8317 8.5637 16.1475 7.48167 15.4907C6.88698 18.6108 6.16021 21.6019 4.00754 23.1644C3.34226 18.4485 4.98286 14.9064 5.74477 11.1466C4.44608 8.96045 5.90093 4.56013 8.64015 5.64443C12.0115 6.9776 5.72135 13.7733 9.94405 14.6221C14.3525 15.5082 16.1522 6.97273 13.4182 4.19641C9.4681 0.188102 1.92027 4.10532 2.84842 9.84338C3.07452 11.2462 4.52416 11.672 3.42749 13.6077C0.899404 13.0478 0.145304 11.0539 0.24225 8.39569C0.398731 4.04449 4.15199 0.997833 7.91663 0.576213C12.6777 0.0433331 17.1464 2.3245 17.7632 6.80291C18.4571 11.8575 15.6138 17.3314 10.5231 16.9384Z" fill="#FFFFFD"/>
</svg>
