<svg width="22" height="17" viewBox="0 0 22 17" fill="none" xmlns="http://www.w3.org/2000/svg">
<path fill-rule="evenodd" clip-rule="evenodd" d="M7.75255 0.305214C7.77566 0.282258 7.7686 0.243359 7.7365 0.232519C7.57343 0.178954 7.36864 0.280982 7.22227 0.356228C7.03609 0.45188 6.87624 0.567938 6.73179 0.719068C6.66502 0.788574 6.7626 0.897617 6.83451 0.830024C6.97318 0.701212 7.12725 0.58388 7.30059 0.504807C7.44696 0.437214 7.63635 0.419359 7.75255 0.305852V0.305214ZM8.08381 0.702488C7.99201 0.764343 7.8726 0.780285 7.7686 0.817908C7.64277 0.863183 7.51886 0.913559 7.3956 0.964574C7.30637 1.00156 7.23511 0.871473 7.32498 0.830661C7.44632 0.775821 7.5683 0.721618 7.69284 0.673155C7.80583 0.629155 7.9368 0.570488 8.05942 0.587706C8.12169 0.596633 8.13517 0.668053 8.08445 0.70185L8.08381 0.702488ZM4.67037 0.546894C4.70183 0.460808 4.72879 0.374083 4.74484 0.283533C4.75961 0.200635 4.74934 0.117099 4.77501 0.0373892C4.78657 0.00104149 4.84114 -0.0149005 4.86618 0.0176211C4.98302 0.168113 4.87067 0.436576 4.8084 0.591532C4.77373 0.677618 4.63763 0.634894 4.66973 0.546257L4.67037 0.546894ZM2.41764 1.61947C2.28604 1.51617 2.1525 1.41669 2.01191 1.32678C1.92588 1.2713 1.83665 1.22283 1.74292 1.18202C1.67551 1.15269 1.61452 1.1342 1.56316 1.07936C1.53941 1.05385 1.55482 1.01495 1.58691 1.00602C1.73072 0.965211 1.89699 1.07744 2.01768 1.14567C2.18974 1.24388 2.34446 1.37205 2.49661 1.49767C2.56787 1.55634 2.49276 1.67814 2.41764 1.61947ZM1.92331 2.03651C1.66203 1.94915 1.40009 1.85477 1.15678 1.72724C1.11249 1.70428 1.13688 1.6233 1.18824 1.63222C1.46044 1.68132 1.70889 1.80503 1.96954 1.89622C2.05942 1.92747 2.01447 2.06648 1.92331 2.03587V2.03651ZM1.2197 2.98601C1.31985 2.97007 1.35387 3.12312 1.25308 3.1397C1.14651 3.15691 1.04315 3.14161 0.940434 3.11227C0.914112 3.10526 0.894211 3.08103 0.888433 3.05552C0.878803 3.01343 0.901917 2.9739 0.947496 2.9637C0.982164 2.95604 1.02518 2.97262 1.0592 2.98028C1.11249 2.99175 1.16513 2.99494 1.21906 2.98665L1.2197 2.98601ZM10.2653 14.6645C10.2691 14.6581 10.28 14.6645 10.2755 14.6708C10.2627 14.6893 10.2499 14.7091 10.237 14.7276C10.2332 14.7327 10.2255 14.7276 10.2287 14.7225C10.2409 14.7027 10.2531 14.6836 10.2653 14.6645ZM2.1525 7.46953C-0.00649452 9.66952 0.581564 13.3553 2.73286 15.3857C4.86939 17.402 7.97403 17.2254 10.1619 15.2919C10.4572 15.0311 10.7115 14.7423 10.9342 14.4349C13.4001 15.5827 16.576 15.1772 18.6355 13.2367C20.0825 11.8733 20.8292 10.0961 20.7444 8.11295C20.6725 6.42501 19.9894 4.4514 18.5161 3.48468C18.5032 3.47639 18.4898 3.47639 18.4769 3.48085C16.3064 1.25089 12.7042 1.19478 10.1305 2.93755C9.03973 3.67662 8.24623 4.6223 7.74934 5.66937C7.16834 5.51887 6.55267 5.49018 6.11484 5.69296C6.44097 5.34224 6.71702 4.92583 6.95584 4.55152C7.29417 4.01905 7.78657 3.33993 7.85976 2.69332C7.86233 2.66845 7.85141 2.65187 7.83472 2.64294C7.83921 2.62891 7.84435 2.61489 7.84628 2.59894C7.8527 2.54793 7.80391 2.52497 7.76346 2.53518C7.69156 2.5001 7.53363 2.34961 7.47649 2.30306C7.24987 2.12068 7.02903 1.93193 6.80754 1.74382C6.47499 1.46133 6.1418 1.11379 5.76303 0.891241C5.75084 0.884226 5.73992 0.881038 5.72836 0.8804C5.71488 0.853618 5.68664 0.834487 5.64812 0.842777C5.27512 0.923125 4.9124 1.03791 4.54326 1.13165C4.28711 1.19669 4.01426 1.22283 3.75297 1.27385C3.74976 1.26364 3.74527 1.25344 3.73692 1.24196C3.72023 1.21965 3.68621 1.21327 3.66053 1.21773C3.60275 1.22793 3.54626 1.24133 3.48912 1.25408C3.4384 1.26492 3.41272 1.32614 3.43327 1.3695C3.42235 1.38735 3.42364 1.40904 3.43904 1.42306C3.43327 1.43773 3.43006 1.4524 3.42428 1.46515C3.39089 1.54104 3.5026 1.5793 3.54754 1.52318C3.55717 1.5117 3.55781 1.50851 3.56166 1.50469C3.56166 1.50469 3.56231 1.50405 3.56359 1.50277C3.60468 1.49193 3.64576 1.48428 3.68749 1.47535C3.69455 1.47408 3.69841 1.46898 3.70418 1.46579C3.95006 1.46515 4.21007 1.38672 4.43412 1.32869C4.44375 1.32614 4.45338 1.32295 4.46301 1.3204C4.46365 1.32869 4.46558 1.33698 4.472 1.34463C4.47906 1.35356 4.4874 1.36185 4.49511 1.37141C4.21392 1.65645 4.0149 2.02631 3.81846 2.36938C3.71959 2.5441 3.60018 2.71946 3.48655 2.89674C3.49811 2.36874 3.42749 1.83883 3.36842 1.31338C3.36008 1.24069 3.23489 1.25089 3.23938 1.32359C3.23938 1.32678 3.23938 1.32933 3.23938 1.33188C3.20793 1.32359 3.17005 1.33507 3.15336 1.37333C2.75597 2.26799 2.21157 3.06062 1.70825 3.89598C1.66652 3.96549 1.73842 4.03244 1.79813 4.01842C1.84435 4.07134 1.9002 4.11789 1.95092 4.16572C1.93937 4.17911 1.93359 4.1976 1.94321 4.21355C2.01126 4.33152 2.11655 4.43355 2.23018 4.52665C2.39646 4.71859 2.59804 4.88693 2.78358 5.03105C3.27277 5.41174 3.8069 5.73887 4.28646 6.13168C4.28454 6.14061 4.2839 6.1489 4.28518 6.15846C3.4827 6.44287 2.73479 6.87649 2.1525 7.47017V7.46953ZM3.00827 4.92711C3.01277 4.91372 3.01726 4.90033 3.02175 4.88693C3.07247 4.92583 3.1219 4.96473 3.17069 5.00363C3.44675 5.22618 3.71253 5.45511 3.96611 5.69742C3.78443 5.57116 3.5989 5.44745 3.41529 5.32119C3.43391 5.29569 3.43647 5.25615 3.40373 5.23064C3.27148 5.12925 3.13988 5.02786 3.00827 4.92647V4.92711ZM2.17241 4.14723C2.3727 4.38827 2.63207 4.58978 2.88693 4.78427C2.88308 4.79766 2.87859 4.81041 2.87409 4.82444C2.79192 4.76067 2.70846 4.69882 2.62693 4.63441C2.54925 4.5732 2.47414 4.50496 2.3971 4.43737C2.39453 4.43227 2.39196 4.42653 2.38747 4.42079C2.35216 4.38126 2.31685 4.34236 2.28154 4.30282C2.24431 4.25181 2.20579 4.20207 2.17241 4.14786V4.14723ZM2.08766 4.0063C2.47157 3.92404 2.86126 3.83732 3.23104 3.70149C3.13474 4.00056 3.04037 4.30027 2.946 4.59934C2.69883 4.38891 2.44717 4.18166 2.17626 4.01969C2.14544 4.0012 2.11848 4.02224 2.1127 4.04902C2.105 4.03436 2.09472 4.02097 2.08702 4.0063H2.08766ZM3.31193 3.19262C3.27405 3.26213 3.23682 3.331 3.20728 3.40178C3.18738 3.44961 3.23297 3.4783 3.27405 3.47256C3.27148 3.48787 3.26956 3.50253 3.26763 3.5172C2.83879 3.66068 2.4048 3.76845 1.96119 3.8641C1.92909 3.87111 1.91304 3.89152 1.90534 3.91447C1.90149 3.91129 1.89764 3.90937 1.89443 3.90618C2.37142 3.13077 2.95434 2.36938 3.25415 1.50405C3.29652 2.06584 3.36586 2.6321 3.31257 3.19262H3.31193ZM3.4583 3.70404C3.67786 4.03308 3.86789 4.37424 4.05086 4.72369C4.04765 4.7205 4.04508 4.71731 4.04187 4.71412C3.99564 4.6663 3.92374 4.73262 3.96547 4.78427C4.10478 4.9558 4.2274 5.14774 4.35901 5.33203C4.45017 5.51632 4.54904 5.70125 4.67166 5.86194C4.57279 5.82368 4.47521 5.78287 4.38019 5.73568C4.29032 5.69105 4.1953 5.62409 4.09387 5.60368C3.87302 5.38241 3.63678 5.17644 3.39346 4.97812C3.28882 4.89331 3.18482 4.80404 3.08017 4.71412C3.19637 4.37105 3.3023 4.02288 3.39795 3.67343C3.40887 3.69065 3.42492 3.70404 3.45381 3.70468C3.45509 3.70468 3.45638 3.70468 3.4583 3.70468V3.70404ZM4.81739 5.70061C4.78144 5.63684 4.73906 5.57435 4.69798 5.5125C4.39367 4.90606 4.07846 4.26073 3.68043 3.7219C4.12404 4.09366 4.5484 4.49986 5.07226 4.75366C5.10885 5.1369 5.1525 5.52206 5.20001 5.90467C5.11013 5.92444 5.02025 5.94484 4.93037 5.9678C4.8925 5.89638 4.85526 5.82241 4.81739 5.74908C4.82445 5.73505 4.82766 5.7191 4.81739 5.70061ZM6.26763 5.03998C6.26378 4.99343 6.25736 4.94879 6.24966 4.91053C6.24388 4.88183 6.22334 4.8678 6.20087 4.86525C6.21306 4.82635 6.22526 4.78873 6.23618 4.75302C6.24902 4.81998 6.25993 4.88757 6.26635 4.9558C6.26892 4.98259 6.26763 5.01128 6.26763 5.03998ZM6.14694 4.52091C5.99351 5.00618 5.7733 5.40664 5.52678 5.8409C5.47285 5.84983 5.41893 5.86194 5.365 5.87215C5.35922 5.494 5.27448 5.11076 5.20964 4.73836C5.21349 4.72879 5.21606 4.71731 5.21606 4.70647C5.24046 4.74601 5.30016 4.76896 5.33868 4.72943C5.75661 4.30601 6.02432 3.74103 6.31771 3.22259C6.33119 3.22961 6.34852 3.23216 6.36842 3.22514C6.40951 3.21175 6.45124 3.20027 6.49233 3.18816C6.48334 3.22642 6.47435 3.26468 6.46472 3.30294C6.46087 3.30804 6.45895 3.31506 6.46023 3.32335C6.36522 3.72508 6.2702 4.12746 6.14566 4.52091H6.14694ZM5.20707 4.66757C5.20386 4.6612 5.19937 4.65609 5.19551 4.65036C5.1923 4.63186 5.1891 4.61273 5.18653 4.5936C5.17626 4.52792 5.09986 4.53366 5.07097 4.57766C4.63185 4.34937 4.27876 4.00502 3.89678 3.69639C4.65625 3.6645 5.54476 3.51656 6.18995 3.155C5.87217 3.65175 5.5974 4.16955 5.2212 4.62931C5.21092 4.64207 5.20771 4.65418 5.20771 4.66693L5.20707 4.66757ZM4.58884 1.47727C4.87517 1.78845 5.24174 2.06202 5.55567 2.33431C5.79321 2.54028 6.03267 2.74306 6.28689 2.92735C5.52935 3.35204 4.55417 3.47894 3.68492 3.53378C3.64705 3.50636 3.60981 3.47766 3.57129 3.45152C3.54048 3.43111 3.51159 3.43749 3.49169 3.45535C3.48334 3.45407 3.47499 3.45152 3.46601 3.4528C3.46408 3.45024 3.46151 3.44769 3.45959 3.44514C3.47243 3.39795 3.48527 3.3514 3.49746 3.30422C3.50132 3.28827 3.49939 3.27488 3.4949 3.26277C3.68171 3.02045 3.81717 2.69268 3.95327 2.45292C4.14715 2.11176 4.35965 1.79228 4.58884 1.47663V1.47727ZM6.47692 2.86932C6.46601 2.86613 6.45509 2.86549 6.44418 2.86804C6.102 2.60149 5.76881 2.32602 5.44396 2.03842C5.19359 1.81715 4.9445 1.55953 4.66267 1.37205C4.69862 1.31593 4.61773 1.2528 4.5683 1.29744C4.56573 1.29999 4.5638 1.30191 4.56123 1.30446C4.55674 1.30191 4.55225 1.29808 4.54775 1.29553C4.90534 1.19988 5.26036 1.0953 5.61987 1.00666C5.85484 1.65008 6.20921 2.23993 6.47756 2.86868L6.47692 2.86932ZM7.67679 2.64167C7.53299 2.8081 7.12404 2.85593 6.95135 2.89546C6.86468 2.91523 6.76902 2.93245 6.67401 2.95349C6.6708 2.94584 6.66695 2.93755 6.66374 2.9299C6.66374 2.92799 6.66245 2.92671 6.66181 2.9248C6.41786 2.30752 6.08595 1.73043 5.81953 1.12336C6.23168 1.44538 6.62201 1.79547 7.02389 2.13153C7.11184 2.2055 7.45402 2.56897 7.67679 2.64103V2.64167ZM7.15486 4.03308C7.0913 3.71743 6.89164 3.40433 6.69006 3.13268C6.92182 3.07274 7.15614 3.023 7.38405 2.94903C7.49318 2.91332 7.62608 2.87315 7.72237 2.80045C7.64213 3.23088 7.40716 3.65048 7.15486 4.03372V4.03308ZM6.68621 4.71157C6.70097 4.56299 6.6432 4.40676 6.61174 4.26201C6.579 4.11152 6.54497 3.96102 6.53213 3.80734C6.53085 3.78885 6.51416 3.7812 6.49746 3.78247C6.50709 3.74166 6.51801 3.70149 6.52635 3.66068C6.58221 3.95274 6.64705 4.25308 6.77416 4.50688C6.78572 4.53047 6.82423 4.52218 6.82423 4.49604C6.83066 4.15169 6.67016 3.80607 6.56551 3.47129C6.57835 3.40561 6.59248 3.33929 6.60532 3.27297C6.67273 3.3801 6.73692 3.48914 6.7947 3.60074C6.89036 3.78439 6.95584 3.991 7.06626 4.16572C6.99244 4.27349 6.91861 4.37998 6.84799 4.4801C6.79535 4.55534 6.74142 4.6325 6.68685 4.71094L6.68621 4.71157ZM6.40245 4.92711C6.3864 4.81488 6.36008 4.7052 6.33376 4.59488C6.32798 4.57192 6.31386 4.55917 6.29588 4.55279C6.31578 4.48456 6.33568 4.4176 6.35494 4.34937C6.37164 4.43291 6.38768 4.51581 6.40373 4.59934C6.41978 4.68288 6.42492 4.76769 6.48591 4.83146C6.50645 4.8525 6.54305 4.84485 6.55268 4.81679C6.58542 4.72178 6.54305 4.62166 6.51993 4.52792C6.49554 4.42653 6.47114 4.3245 6.44611 4.22311C6.43969 4.19569 6.41914 4.18549 6.39732 4.18357C6.42171 4.0892 6.44611 3.99482 6.46858 3.89981C6.47371 4.02926 6.48013 4.15807 6.49875 4.28624C6.52122 4.43737 6.53021 4.61209 6.61366 4.74346C6.62265 4.75749 6.63678 4.76259 6.65026 4.76131C6.57258 4.87227 6.49169 4.98386 6.40887 5.09482C6.4185 5.03998 6.40759 4.97685 6.40052 4.92711H6.40245ZM6.00378 5.58328C5.98516 5.55777 5.95178 5.54629 5.92225 5.55331C6.01084 5.39453 6.08338 5.21853 6.14116 5.0489C6.14116 5.09227 6.13859 5.13563 6.13282 5.17963C6.12575 5.23893 6.12062 5.28548 6.14501 5.34096C6.15721 5.36902 6.19509 5.36519 6.21114 5.34351C6.26057 5.27783 6.27405 5.17963 6.27084 5.08398C6.2747 5.11586 6.28304 5.14519 6.30487 5.17006C6.31514 5.1809 6.32798 5.18409 6.34146 5.18218C6.23425 5.32119 6.1219 5.45638 6.00314 5.58264L6.00378 5.58328ZM10.8244 14.1441C10.5741 13.9879 10.3346 13.7596 10.0573 13.6557C10.0322 13.6461 10.0053 13.6614 9.99179 13.6831C9.39924 13.245 8.87859 12.6819 8.47029 11.9811C7.61709 10.5183 7.01811 8.72002 7.36864 7.03081C7.60296 7.07545 7.83472 7.13475 8.05877 7.2202C7.92396 7.68124 7.85462 8.15822 7.91433 8.6435C7.91946 8.68559 7.98045 8.67602 7.98495 8.63776C7.9965 8.54466 8.01127 8.45411 8.02539 8.36292C8.09665 8.55932 8.16021 8.76402 8.28475 8.93364C8.30273 8.95787 8.34767 8.93492 8.33739 8.90622C8.26549 8.70025 8.1769 8.49938 8.09922 8.29533C8.08766 8.26408 8.05877 8.26536 8.03759 8.28002C8.04529 8.23283 8.05107 8.18501 8.05813 8.13846C8.12297 8.32466 8.19166 8.53956 8.32135 8.68877C8.33739 8.70727 8.3727 8.69643 8.3727 8.67028C8.36821 8.4624 8.22441 8.26408 8.14608 8.0766C8.1326 8.04408 8.09408 8.04599 8.06905 8.06321C8.11142 7.80368 8.16021 7.54669 8.2212 7.2929C8.23725 7.29991 8.25265 7.30756 8.2687 7.31394C8.2687 7.31776 8.26742 7.32159 8.2687 7.32605C8.29117 7.43318 8.32648 7.59005 8.4093 7.68379C8.38747 7.91017 8.37977 8.13718 8.3849 8.36356C8.34253 8.22072 8.2732 8.08617 8.2167 7.94907C8.20194 7.91272 8.14929 7.94141 8.16278 7.97712C8.22184 8.1308 8.26742 8.2966 8.35986 8.43434C8.36628 8.4439 8.37784 8.44646 8.38747 8.4439C8.40352 8.90814 8.47542 9.36981 8.59676 9.81874C8.5056 9.60384 8.32135 9.40935 8.19166 9.21741C8.1525 9.15938 8.05428 9.20721 8.0928 9.26906C8.22248 9.47631 8.34574 9.75051 8.55374 9.8908C8.57942 9.90802 8.60446 9.8908 8.6096 9.8672C8.91454 10.9595 9.52507 11.969 10.3956 12.7317C10.8527 13.252 11.5493 13.6155 12.1861 13.854C12.242 13.875 12.285 13.7877 12.231 13.759C12.1367 13.7099 12.0429 13.6595 11.9479 13.6097C12.1315 13.6684 12.3164 13.7194 12.5045 13.7532C12.493 13.7979 12.5154 13.8527 12.5739 13.8642C12.4544 13.905 12.3286 13.9228 12.2041 13.9522C12.1765 13.9592 12.1771 13.9949 12.2015 14.0045C12.3029 14.0465 12.3813 14.0619 12.4891 14.0325C12.5822 14.0077 12.6669 13.9719 12.7498 13.9235C12.7652 13.9145 12.7722 13.9012 12.7767 13.8878C12.9051 13.9012 13.0322 13.9107 13.1581 13.9139C13.0611 13.9764 12.9597 14.0198 12.8422 14.0332C12.753 14.0427 12.6657 14.0159 12.579 14.0332C12.5469 14.0395 12.5373 14.0784 12.5572 14.102C12.7324 14.3086 13.0926 14.1052 13.2473 13.9764C13.2672 13.9598 13.2653 13.935 13.2544 13.9152C13.3751 13.9165 13.4945 13.9152 13.6139 13.9094C13.5843 13.926 13.5574 13.9458 13.5266 13.9605C13.4084 14.0179 13.2845 14.0682 13.185 14.1556C13.1613 14.1766 13.1844 14.2085 13.2114 14.206C13.4322 14.1836 13.6569 14.0517 13.8322 13.8961C14.5576 13.8291 15.2439 13.6142 15.8653 13.2788C15.8788 13.2979 15.8993 13.3119 15.9282 13.3037C18.1469 12.6832 19.3115 10.2377 19.2531 8.10402C19.2518 8.06066 19.2152 8.04153 19.1818 8.04536C19.2409 6.2707 18.3941 4.5936 16.5452 3.64601C14.3952 2.3139 10.861 3.14352 9.33825 5.13308C9.34467 5.08525 9.28432 5.05082 9.24966 5.09737C9.17069 5.20259 9.09686 5.31163 9.0256 5.42195C9.00121 5.39835 8.95691 5.39198 8.92802 5.42577C8.87281 5.49145 8.82145 5.5616 8.76945 5.62983C8.76046 5.56734 8.6693 5.5278 8.62436 5.5954C8.60189 5.62855 8.57044 5.66681 8.54026 5.70763C8.5133 5.66681 8.44782 5.65024 8.41315 5.70316C8.38298 5.74971 8.35088 5.7969 8.33033 5.84664C8.31364 5.84537 8.29759 5.84154 8.28026 5.84026C8.14737 5.78734 8.00741 5.74142 7.86425 5.69997C8.54861 4.42398 9.61174 3.35332 10.9252 2.71054C13.6466 1.37779 16.7917 1.68706 18.7697 4.1045C18.8319 4.18039 18.9289 4.11471 18.9295 4.03691C21.2522 6.638 21.1065 11.0705 18.2631 13.2896C18.1591 13.3712 18.0519 13.4484 17.9434 13.5237C19.0509 12.6079 19.8835 11.228 20.27 9.9112C20.8625 7.89359 20.2225 6.04113 19.0598 4.33981C19.0348 4.30282 18.9777 4.33024 18.9969 4.37297C19.8919 6.3351 20.876 7.99115 19.9959 10.1886C19.359 11.7802 18.3986 12.9453 17.0735 14.0159C17.062 14.0255 17.0601 14.0376 17.0613 14.0491C15.4037 14.8838 13.4508 15.0872 11.7431 14.5618C11.7168 14.5535 11.6905 14.5459 11.6648 14.5369C11.6372 14.528 11.6109 14.5178 11.5839 14.5089C11.3194 14.4132 11.0646 14.294 10.8251 14.1448L10.8244 14.1441ZM9.08274 6.29302C9.02496 6.24519 8.9582 6.19864 8.88758 6.15273C9.33761 6.35359 9.73821 6.69029 10.0945 7.06142C9.8069 6.7904 9.46215 6.56084 9.09686 6.374C9.11227 6.35104 9.11163 6.31725 9.0821 6.29365L9.08274 6.29302ZM11.0286 7.8904C10.5035 7.25272 9.84028 6.41672 9.02689 6.03986C9.06348 5.96334 9.09943 5.88745 9.1418 5.81284C10.3231 3.75633 13.4861 2.62062 15.7921 3.49998C15.7896 3.52422 15.7986 3.54845 15.8262 3.56566C18.2541 5.03934 19.6152 7.41724 18.337 10.1867C17.9897 10.9398 17.5602 11.5813 17.053 12.1016C15.5835 13.4038 13.49 14.03 11.7123 13.3196C11.6706 13.2992 11.6289 13.2781 11.5865 13.259C11.7386 12.8764 11.8491 12.4804 11.912 12.0768C12.3774 10.7 11.9396 8.99805 11.0286 7.89104V7.8904ZM17.1262 4.26201C17.1345 4.25818 17.1422 4.25436 17.1486 4.24926C18.649 5.39198 19.2512 7.16536 18.9205 8.90686C19.2242 7.05695 18.5379 5.44937 17.1262 4.26265V4.26201ZM19.0149 9.22124C18.8942 9.9112 18.674 10.5833 18.2862 11.1751C17.885 11.7885 17.4112 12.2177 16.8649 12.5901C17.0074 12.4677 17.1454 12.3388 17.2764 12.2017C17.5582 11.9365 17.8137 11.6451 18.0339 11.3307C18.502 10.6624 18.8313 9.945 19.0143 9.22124H19.0149ZM10.8668 12.5856C10.8617 12.5646 10.8488 12.5525 10.8341 12.5461C10.8527 12.4753 10.8752 12.4058 10.8912 12.335C10.9015 12.4696 10.9098 12.6041 10.9156 12.7387C10.9175 12.7859 10.9156 12.8388 10.9182 12.8898C10.9085 12.8834 10.8983 12.8764 10.8886 12.87C10.9079 12.7776 10.8854 12.6634 10.8675 12.585L10.8668 12.5856ZM10.5375 12.6041C10.4585 12.5359 10.3802 12.4645 10.3038 12.3892C9.05578 11.1445 8.34382 9.21103 8.59804 7.43255C10.1189 8.64541 11.0568 10.7051 10.5375 12.6041ZM8.70333 12.6838C9.06605 13.1442 9.48655 13.537 9.94814 13.8642C8.68407 15.6216 6.02496 16.1719 4.14972 14.9776C2.50496 13.9292 1.57729 11.7662 2.20386 9.87358C2.87281 7.85405 5.21092 6.66223 7.28775 7.01614C6.87688 8.88837 7.32434 10.9347 8.70268 12.6838H8.70333ZM3.16299 6.89817C3.56551 6.66096 4.00399 6.45052 4.46108 6.28281C4.46879 6.286 4.47649 6.28919 4.4842 6.29238C4.53812 6.32426 4.60361 6.27962 4.60874 6.22861C4.6402 6.21777 4.67294 6.20884 4.70504 6.19864C4.72045 6.19609 4.73586 6.19354 4.75126 6.19099C4.74549 6.21394 4.75126 6.23881 4.76346 6.25858C4.61516 6.33319 4.47906 6.41928 4.36928 6.52067C4.33975 6.54809 4.36543 6.60548 4.40716 6.59336C5.12811 6.38675 5.74698 6.01435 6.53149 6.11574C6.62779 6.12786 6.63356 5.98183 6.53983 5.96716C6.33825 5.93655 6.10328 5.93592 5.86126 5.95887C5.86254 5.95313 5.86639 5.94676 5.86575 5.94102C5.86896 5.93847 5.87153 5.93592 5.87474 5.93336C6.32028 5.88044 6.76838 5.88363 7.20686 5.96078C8.33419 6.15847 9.26314 6.71962 10.187 7.34136C10.316 7.49887 10.4405 7.65892 10.5599 7.82217C10.601 7.89231 10.6396 7.96437 10.6749 8.04089C10.6871 8.06704 10.7102 8.06959 10.7294 8.06194C11.4921 9.17277 11.9922 10.4233 11.8189 11.83C11.8163 11.851 11.8125 11.8721 11.8099 11.8931C11.7945 11.9722 11.7778 12.0506 11.7579 12.1297C11.7534 12.1488 11.7566 12.1654 11.7637 12.1788C11.6982 12.5321 11.5942 12.8726 11.4632 13.201C11.4388 13.1895 11.4144 13.178 11.3907 13.1666C11.3091 13.1264 11.2263 13.0792 11.1403 13.0397C11.1159 13.025 11.0928 13.0071 11.069 12.9918C11.0922 12.8975 11.0703 12.7859 11.0633 12.6934C11.0524 12.5582 11.0299 12.4237 11.0132 12.2885C11.0068 12.2375 10.94 12.2298 10.9073 12.2566C11.3098 10.3295 10.5876 8.21051 8.76624 7.16281C8.71231 7.13156 8.66288 7.20872 8.71424 7.24379C10.0008 8.13973 10.9246 9.45016 10.872 11.0705C10.8687 11.1821 10.8559 11.288 10.8456 11.3951C10.811 9.76262 9.92631 8.14356 8.53769 7.26229C8.5255 7.25463 8.51394 7.254 8.50367 7.25655C6.33889 6.01116 2.89143 7.29289 2.10628 9.65996C1.53106 11.3964 2.06519 13.4822 3.46215 14.6836C3.36329 14.6313 3.26378 14.5803 3.15978 14.5414C3.13731 14.5325 3.11613 14.5643 3.1341 14.5816C3.29524 14.7359 3.52507 14.8315 3.74591 14.9055C3.89742 15.0139 4.05406 15.1159 4.22227 15.2039C4.22933 15.2071 4.23639 15.2103 4.24345 15.2141C4.03737 15.1663 3.83194 15.114 3.62201 15.0885C3.60082 15.086 3.59376 15.1153 3.60981 15.1261C3.87431 15.3079 4.24088 15.3487 4.56316 15.3614C4.70761 15.4214 4.85398 15.4769 5.00228 15.5228C4.80904 15.5629 4.61388 15.5432 4.41422 15.5189C4.4001 15.517 4.39239 15.5394 4.40587 15.5457C4.64662 15.6739 4.90213 15.6656 5.15058 15.568C5.71745 15.7262 6.30551 15.7791 6.87945 15.7287C6.64769 15.8429 6.37998 15.8544 6.154 15.98C6.13474 15.9908 6.14116 16.0195 6.16299 16.0214C6.44482 16.045 6.7427 15.9143 6.97189 15.7613C6.98923 15.7498 6.99051 15.7307 6.98473 15.7154C7.25436 15.6854 7.52079 15.6369 7.77887 15.5623C7.60874 15.6803 7.42578 15.7836 7.28197 15.929C7.26207 15.9494 7.27812 15.9915 7.31022 15.9819C7.58306 15.9022 7.82381 15.679 8.02667 15.4896C8.02924 15.4877 8.0286 15.4845 8.02988 15.4826C8.25715 15.4029 8.47799 15.3079 8.68856 15.1931C8.46964 15.4871 8.12554 15.5489 7.84499 15.7581C7.81674 15.7791 7.84628 15.8136 7.8726 15.8116C8.22633 15.7829 8.5775 15.4985 8.77138 15.2173C8.78807 15.1925 8.77138 15.1695 8.74955 15.1618C9.0577 14.9878 9.34467 14.7754 9.60147 14.5254C9.57707 14.5643 9.55396 14.602 9.52956 14.6409C9.49875 14.6893 9.56551 14.7474 9.60724 14.7059C9.82231 14.491 10.0066 14.257 10.1722 14.0128C10.1837 14.0204 10.1966 14.0268 10.2081 14.0344C10.1472 14.2041 10.0438 14.375 10.0367 14.5522C10.0194 14.5318 9.98537 14.5235 9.96354 14.551C9.79213 14.7633 9.6111 14.9686 9.42235 15.1663C9.30872 15.2849 9.15464 15.3984 9.08723 15.5502C9.07825 15.5712 9.102 15.5974 9.12383 15.5904C9.32092 15.5247 9.47949 15.3028 9.61045 15.1491C9.76132 14.9718 9.90256 14.7869 10.0399 14.5994C10.0451 14.5924 10.0438 14.5854 10.0444 14.5784C10.0579 14.5962 10.0849 14.602 10.1041 14.5854C10.1317 14.5624 10.1516 14.5325 10.1728 14.5038C10.0804 14.6689 9.98409 14.8322 9.87624 14.9839C9.86339 15.0031 9.89228 15.0273 9.90769 15.0101C10.0451 14.8564 10.1465 14.6919 10.239 14.5178C10.2409 14.5312 10.2435 14.5439 10.2499 14.5573C10.2563 14.5707 10.2743 14.5803 10.289 14.5758C10.4213 14.5376 10.447 14.331 10.4611 14.1843C10.4836 14.197 10.5054 14.2111 10.5285 14.2238C10.5234 14.338 10.4482 14.4489 10.4803 14.5573C10.488 14.5835 10.515 14.5981 10.5413 14.5854C10.6402 14.5369 10.6678 14.4113 10.6646 14.2959C10.7121 14.3207 10.7596 14.3475 10.8078 14.3718C10.5388 14.7289 10.2223 15.0534 9.84863 15.3296C7.49575 17.0666 4.46301 17.2388 2.47606 14.873C0.49939 12.5187 0.224619 8.62756 3.16299 6.89562V6.89817ZM9.36393 14.7646C9.41336 14.711 9.48719 14.7939 9.43968 14.8468C9.17904 15.137 8.91133 15.526 8.55374 15.702C8.53705 15.7103 8.51908 15.6911 8.52935 15.6758C8.74056 15.3353 9.09237 15.0579 9.36457 14.7646H9.36393ZM7.0913 15.841C7.20878 15.7855 7.32113 15.7224 7.43027 15.6522C7.45467 15.6369 7.4842 15.6771 7.4598 15.6943C7.264 15.832 7.02646 16.0674 6.76646 16.0387C6.74591 16.0367 6.7427 16.0131 6.75875 16.0023C6.85954 15.9347 6.98152 15.8945 7.09066 15.8416L7.0913 15.841ZM5.65133 15.9405C5.82659 15.8945 5.99928 15.9009 6.17005 15.8276C6.19701 15.8161 6.21884 15.8544 6.19188 15.8684C6.02625 15.9551 5.83814 16.0387 5.6494 15.9813C5.62822 15.9749 5.63207 15.9456 5.65133 15.9405ZM4.97852 15.8359C5.06455 15.8053 5.15635 15.8027 5.24623 15.7931C5.35088 15.7817 5.45424 15.7613 5.5576 15.7415C5.61024 15.7313 5.62757 15.8097 5.57493 15.8218C5.39389 15.8652 5.15892 15.9494 4.97596 15.8792C4.95349 15.8703 4.95734 15.8435 4.97788 15.8359H4.97852ZM2.20001 9.07074C2.18717 9.07329 2.18332 9.05416 2.19552 9.05161C2.20771 9.04906 2.21221 9.06819 2.20001 9.07074ZM2.0042 9.54964H2.00485L2.02539 9.64465H2.02475L2.0042 9.54964ZM1.75511 10.9092C1.7519 10.9678 1.65496 10.9787 1.64854 10.9175C1.59719 10.3729 1.71659 9.84935 1.92845 9.34877C1.94643 9.30605 2.01319 9.32645 1.99843 9.37109C1.82894 9.87294 1.78208 10.3837 1.75511 10.9085V10.9092ZM17.9299 12.0525C17.9614 11.9913 18.0686 12.041 18.0397 12.1042C17.8003 12.6335 17.4112 13.1927 16.8643 13.4408C16.8129 13.4643 16.7577 13.3961 16.8052 13.3572C17.2674 12.9823 17.6571 12.5875 17.9299 12.0525ZM16.7782 13.0154C16.8174 12.9587 16.9053 13.0141 16.8687 13.0728C16.6672 13.3923 16.4117 13.7194 16.0688 13.8954C16.0354 13.9126 15.9899 13.8712 16.0162 13.8387C16.2569 13.5485 16.5599 13.3285 16.7782 13.0148V13.0154ZM16.1298 13.2641C16.1805 13.215 16.2486 13.2928 16.203 13.3432C15.9513 13.6206 15.7093 14.0128 15.3601 14.1773C15.3164 14.197 15.2619 14.1479 15.2933 14.1052C15.5225 13.7959 15.8538 13.5326 16.1298 13.2641ZM15.1925 13.8151C15.2529 13.78 15.301 13.8737 15.2426 13.9107C15.1014 13.9974 14.9723 14.1008 14.8157 14.1594C14.7823 14.1722 14.7476 14.1326 14.7778 14.1065C14.9049 13.9936 15.0455 13.9018 15.1925 13.8157V13.8151ZM17.1281 3.66706C16.4977 3.22961 15.6689 2.83297 14.8863 2.83361C14.8773 2.83361 14.8786 2.82022 14.8869 2.82022C15.7247 2.78897 16.5394 3.07401 17.1711 3.61668C17.2 3.64155 17.1589 3.68874 17.1281 3.66706ZM10.3674 3.85326C9.68685 4.25818 9.09044 4.6867 8.61666 5.32502C8.59547 5.35308 8.5454 5.33331 8.55888 5.2976C8.83429 4.54705 9.65154 4.11471 10.3192 3.76016C10.3796 3.72827 10.4258 3.81819 10.368 3.85262L10.3674 3.85326ZM8.2809 7.73927C8.2289 7.66275 8.20771 7.58049 8.18653 7.49185C8.18139 7.47017 8.21606 7.46316 8.22055 7.48484C8.23789 7.57029 8.261 7.65127 8.29374 7.73289C8.29695 7.74182 8.28604 7.74756 8.2809 7.73927ZM8.19744 7.71631C8.25137 7.84576 8.2809 7.97968 8.32648 8.11104C8.3329 8.12889 8.30337 8.13909 8.29502 8.12188C8.23404 7.99881 8.19038 7.87382 8.13645 7.74756C8.11912 7.70739 8.18011 7.67614 8.1968 7.71631H8.19744ZM8.12361 8.67411C8.23339 8.87689 8.37463 9.06755 8.46001 9.28181C8.47799 9.32645 8.42535 9.36918 8.3894 9.33155C8.22441 9.15874 8.13645 8.93173 8.03823 8.71811C8.01255 8.66199 8.09408 8.61927 8.12361 8.67347V8.67411ZM8.39389 9.86975C8.39196 9.86019 8.3894 9.85126 8.38747 9.8417C8.38619 9.83723 8.39389 9.83596 8.39453 9.84042C8.39646 9.84999 8.39838 9.85955 8.40031 9.86848C8.40095 9.8723 8.39517 9.87358 8.39389 9.86975ZM11.2366 11.4429C11.2315 11.4021 11.286 11.3913 11.2989 11.4295C11.3727 11.6489 11.5441 11.9658 11.4253 12.1922C11.4144 12.2139 11.3823 12.2081 11.3721 12.1896C11.3169 12.0921 11.3162 11.9754 11.2989 11.867C11.2758 11.7254 11.2533 11.5851 11.2366 11.4429ZM11.2533 11.8529C11.2783 12.0761 11.392 12.3223 11.3522 12.5461C11.3483 12.5671 11.3246 12.5722 11.313 12.5544C11.1846 12.3675 11.1897 12.0889 11.1705 11.8708C11.166 11.8179 11.2469 11.7987 11.2533 11.8529ZM11.0909 12.0353C11.1865 12.3076 11.2982 12.6679 11.1936 12.9529C11.1782 12.9957 11.1146 12.9937 11.1044 12.9485C11.0742 12.8165 11.0845 12.6787 11.0755 12.5442C11.0639 12.3803 11.0395 12.2145 10.9965 12.0557C10.9805 11.9951 11.071 11.9792 11.0909 12.0353ZM21.4089 7.30884C21.5796 7.94779 21.6304 8.64732 21.4564 9.29202C21.4423 9.34494 21.3646 9.32581 21.3652 9.2748C21.371 8.61927 21.4403 7.97649 21.3504 7.32159C21.3453 7.28397 21.3986 7.27121 21.4089 7.30884ZM21.8852 9.16002C21.8949 9.08796 22.0085 9.09306 21.9995 9.1664C21.9687 9.40999 21.8518 9.59555 21.7145 9.79451C21.6836 9.83915 21.6156 9.79578 21.6432 9.74923C21.7536 9.56686 21.8563 9.37492 21.8852 9.16066V9.16002ZM1.41358 7.63278C1.07718 8.27747 0.753616 8.90558 0.595688 9.61915C0.582848 9.67717 0.491686 9.65677 0.494896 9.60065C0.530848 8.85138 0.985374 8.2188 1.34681 7.59069C1.37249 7.54605 1.43669 7.58878 1.41358 7.63342V7.63278ZM0.137951 8.72958C0.151434 8.65561 0.269558 8.6588 0.258003 8.73596C0.136667 9.60576 0.158497 10.4475 0.265709 11.3179C0.274696 11.3893 0.174545 11.4129 0.154644 11.3422C-0.080965 10.4972 -0.0148392 9.58344 0.13731 8.73022L0.137951 8.72958ZM17.4664 1.92237C17.1512 1.82735 16.82 1.70045 16.5227 1.56144C16.4662 1.53466 16.472 1.44156 16.5445 1.4473C16.8816 1.47408 17.2302 1.64306 17.5293 1.79101C17.607 1.82927 17.5441 1.94596 17.4664 1.92237ZM2.35088 15.8174C2.63913 16.2567 3.05 16.5616 3.45252 16.888C3.51415 16.9378 3.45702 17.0283 3.38576 16.9914C2.90619 16.7427 2.53063 16.3224 2.26228 15.8633C2.22954 15.8072 2.31621 15.7645 2.35088 15.8174Z" fill="#010D10"/>
</svg>
