<svg width="20" height="12" viewBox="0 0 20 12" fill="none" xmlns="http://www.w3.org/2000/svg">
<path fill-rule="evenodd" clip-rule="evenodd" d="M10.0729 11.4536H11.2106C11.2106 11.4536 11.5543 11.4159 11.7298 11.2267C11.8913 11.0531 11.8861 10.7269 11.8861 10.7269C11.8861 10.7269 11.8639 9.20027 12.5724 8.97546C13.2709 8.754 14.1678 10.451 15.1185 11.1034C15.8374 11.5973 16.3837 11.489 16.3837 11.489L18.9256 11.4536C18.9256 11.4536 20.2554 11.3717 19.6249 10.3262C19.5732 10.2406 19.2577 9.55274 17.7349 8.13925C16.141 6.65987 16.3545 6.89916 18.2744 4.34015C19.4437 2.7817 19.9112 1.83024 19.7652 1.42274C19.6259 1.03461 18.7659 1.1372 18.7659 1.1372L15.9038 1.15503C15.9038 1.15503 15.6917 1.12608 15.5343 1.22014C15.3805 1.3124 15.2816 1.52739 15.2816 1.52739C15.2816 1.52739 14.8286 2.73338 14.2244 3.75899C12.95 5.92315 12.4404 6.03737 12.2321 5.903C11.7476 5.58981 11.8685 4.64481 11.8685 3.97347C11.8685 1.87624 12.1866 1.00179 11.2491 0.775426C10.938 0.70023 10.7091 0.650615 9.91343 0.642605C8.8922 0.63201 8.02783 0.645706 7.53841 0.885507C7.21281 1.04494 6.96164 1.40025 7.11462 1.42067C7.30377 1.44599 7.73221 1.53618 7.95935 1.84549C8.25264 2.24447 8.24231 3.14063 8.24231 3.14063C8.24231 3.14063 8.41079 5.60945 7.84875 5.91618C7.46295 6.12652 6.93373 5.69705 5.79752 3.73367C5.21533 2.72795 4.77578 1.61628 4.77578 1.61628C4.77578 1.61628 4.69102 1.40852 4.53985 1.29741C4.35638 1.16278 4.10004 1.11988 4.10004 1.11988L1.38031 1.13771C1.38031 1.13771 0.972024 1.14908 0.822148 1.32661C0.68881 1.4845 0.811554 1.81112 0.811554 1.81112C0.811554 1.81112 2.94083 6.79269 5.35177 9.30312C7.56244 11.6047 10.0729 11.4536 10.0729 11.4536Z" fill="#FFFFFD"/>
</svg>
