<svg width="23" height="18" viewBox="0 0 23 18" fill="none" xmlns="http://www.w3.org/2000/svg">
<path d="M22.0607 2.57396C21.2786 2.92075 20.4374 3.15531 19.5551 3.26006C20.4559 2.72035 21.1472 1.86638 21.4735 0.847137C20.6306 1.34716 19.6966 1.7099 18.7034 1.90542C17.9076 1.05795 16.7739 0.52832 15.5185 0.52832C13.1098 0.52832 11.1562 2.48189 11.1562 4.89058C11.1562 5.2325 11.1949 5.56531 11.2697 5.88477C7.64433 5.70292 4.4298 3.96634 2.27811 1.32634C1.90269 1.97048 1.68733 2.72035 1.68733 3.51967C1.68733 5.03275 2.45802 6.36853 3.62788 7.15061C2.91315 7.12816 2.24005 6.93199 1.65219 6.60439C1.65187 6.62293 1.65187 6.64148 1.65187 6.65969C1.65187 8.77332 3.15616 10.5362 5.15137 10.9367C4.78571 11.0369 4.39955 11.09 4.00233 11.09C3.7206 11.09 3.44765 11.0629 3.18154 11.0122C3.73654 12.7449 5.34722 14.0062 7.25654 14.0416C5.76331 15.2118 3.88261 15.909 1.83828 15.909C1.48693 15.909 1.13883 15.8885 0.798218 15.8478C2.72771 17.086 5.02124 17.8079 7.48459 17.8079C15.5084 17.8079 19.8963 11.1609 19.8963 5.39581C19.8963 5.2068 19.8921 5.01844 19.8836 4.8317C20.7366 4.21684 21.4761 3.44875 22.0607 2.57396Z" fill="#FFFFFD"/>
</svg>
